<?xml version="1.0" encoding="UTF-8"?>
<svg width="120px" height="46px" viewBox="0 0 120 46" version="1.1" xmlns="http://www.w3.org/2000/svg" xmlns:xlink="http://www.w3.org/1999/xlink">
	<title>
		Group
	</title>
	<g id="Page-1" stroke="none" stroke-width="1" fill="none" fill-rule="evenodd">
		<g id="01_accueil" transform="translate(-56.000000, -17.000000)">
			<g id="Group" transform="translate(56.000000, 17.000000)">
				<g id="Portail-Multiservice" transform="translate(7.280000, 0.032000)" fill="#612E77" fill-rule="nonzero">
					<path d="M3.248,9.03 C3.5,9.06733333 3.74966667,9.121 3.997,9.191 C4.24433333,9.261 4.466,9.34266667 4.662,9.436 L4.662,9.968 L0,9.968 L0,9.436 C0.177333333,9.33333333 0.366333333,9.24933333 0.567,9.184 C0.767666667,9.11866667 0.961333333,9.06733333 1.148,9.03 L1.148,1.106 C0.933333333,1.06866667 0.728,1.015 0.532,0.945 C0.336,0.875 0.158666667,0.793333333 0,0.7 L0,0.168 L1.764,0.168 C2.13733333,0.168 2.56433333,0.149333333 3.045,0.112 C3.52566667,0.0746666667 3.96666667,0.056 4.368,0.056 C4.86266667,0.056 5.34566667,0.105 5.817,0.203 C6.28833333,0.301 6.70833333,0.466666667 7.077,0.7 C7.44566667,0.933333333 7.742,1.24366667 7.966,1.631 C8.19,2.01833333 8.302,2.50133333 8.302,3.08 C8.302,3.63066667 8.19233333,4.10666667 7.973,4.508 C7.75366667,4.90933333 7.462,5.24066667 7.098,5.502 C6.734,5.76333333 6.314,5.957 5.838,6.083 C5.362,6.209 4.872,6.272 4.368,6.272 C4.32133333,6.272 4.24666667,6.272 4.144,6.272 C4.04133333,6.272 3.93166667,6.26966667 3.815,6.265 C3.69833333,6.26033333 3.58633333,6.25566667 3.479,6.251 C3.37166667,6.24633333 3.29466667,6.23933333 3.248,6.23 L3.248,9.03 Z M4.004,0.966 C3.81733333,0.966 3.67033333,0.973 3.563,0.987 C3.45566667,1.001 3.35066667,1.022 3.248,1.05 L3.248,5.306 C3.332,5.334 3.458,5.35033333 3.626,5.355 C3.794,5.35966667 3.92933333,5.362 4.032,5.362 C4.284,5.362 4.52666667,5.32 4.76,5.236 C4.99333333,5.152 5.201,5.02133333 5.383,4.844 C5.565,4.66666667 5.712,4.438 5.824,4.158 C5.936,3.878 5.992,3.542 5.992,3.15 C5.992,2.40333333 5.81,1.85266667 5.446,1.498 C5.082,1.14333333 4.60133333,0.966 4.004,0.966 Z" id="Shape">
					</path>
					<path d="M9.226,5.068 C9.226,4.34 9.32866667,3.66566667 9.534,3.045 C9.73933333,2.42433333 10.0426667,1.88766667 10.444,1.435 C10.8453333,0.982333333 11.34,0.63 11.928,0.378 C12.516,0.126 13.1926667,0 13.958,0 C14.7233333,0 15.4,0.126 15.988,0.378 C16.576,0.63 17.0683333,0.982333333 17.465,1.435 C17.8616667,1.88766667 18.1626667,2.42433333 18.368,3.045 C18.5733333,3.66566667 18.676,4.34 18.676,5.068 C18.676,5.796 18.5733333,6.47033333 18.368,7.091 C18.1626667,7.71166667 17.8616667,8.24833333 17.465,8.701 C17.0683333,9.15366667 16.576,9.506 15.988,9.758 C15.4,10.01 14.7233333,10.136 13.958,10.136 C13.1926667,10.136 12.516,10.01 11.928,9.758 C11.34,9.506 10.8453333,9.15366667 10.444,8.701 C10.0426667,8.24833333 9.73933333,7.71166667 9.534,7.091 C9.32866667,6.47033333 9.226,5.796 9.226,5.068 Z M11.606,5.068 C11.606,5.66533333 11.6526667,6.21833333 11.746,6.727 C11.8393333,7.23566667 11.9863333,7.67433333 12.187,8.043 C12.3876667,8.41166667 12.6443333,8.701 12.957,8.911 C13.2696667,9.121 13.6453333,9.226 14.084,9.226 C14.4853333,9.226 14.826,9.121 15.106,8.911 C15.386,8.701 15.6146667,8.41166667 15.792,8.043 C15.9693333,7.67433333 16.0976667,7.23566667 16.177,6.727 C16.2563333,6.21833333 16.296,5.66533333 16.296,5.068 C16.296,4.47066667 16.2516667,3.91766667 16.163,3.409 C16.0743333,2.90033333 15.9343333,2.46166667 15.743,2.093 C15.5516667,1.72433333 15.2996667,1.435 14.987,1.225 C14.6743333,1.015 14.294,0.91 13.846,0.91 C13.4166667,0.91 13.0573333,1.015 12.768,1.225 C12.4786667,1.435 12.2476667,1.72433333 12.075,2.093 C11.9023333,2.46166667 11.781,2.90033333 11.711,3.409 C11.641,3.91766667 11.606,4.47066667 11.606,5.068 Z" id="Shape">
					</path>
					<path d="M22.764,9.03 C22.9786667,9.07666667 23.17,9.13733333 23.338,9.212 C23.506,9.28666667 23.6693333,9.36133333 23.828,9.436 L23.828,9.968 L19.516,9.968 L19.516,9.436 C19.7213333,9.324 19.9173333,9.23766667 20.104,9.177 C20.2906667,9.11633333 20.4773333,9.06733333 20.664,9.03 L20.664,1.106 C20.1973333,1.00333333 19.8146667,0.868 19.516,0.7 L19.516,0.168 L21,0.168 C21.1866667,0.168 21.399,0.163333333 21.637,0.154 C21.875,0.144666667 22.1246667,0.133 22.386,0.119 C22.6473333,0.105 22.9133333,0.091 23.184,0.077 C23.4546667,0.063 23.716,0.056 23.968,0.056 C24.4813333,0.056 24.955,0.114333333 25.389,0.231 C25.823,0.347666667 26.1963333,0.522666667 26.509,0.756 C26.8216667,0.989333333 27.0643333,1.281 27.237,1.631 C27.4096667,1.981 27.496,2.38933333 27.496,2.856 C27.496,3.528 27.3326667,4.07866667 27.006,4.508 C26.6793333,4.93733333 26.2313333,5.25933333 25.662,5.474 C26.0353333,6.062 26.432,6.66166667 26.852,7.273 C27.272,7.88433333 27.7153333,8.47466667 28.182,9.044 L28.854,9.492 L28.854,9.968 L26.516,9.968 L25.914,9.506 C25.4846667,8.99266667 25.1043333,8.39766667 24.773,7.721 C24.4416667,7.04433333 24.15,6.37933333 23.898,5.726 L22.764,5.726 L22.764,9.03 Z M23.464,0.966 C23.1746667,0.966 22.9413333,0.994 22.764,1.05 L22.764,4.956 L23.59,4.956 C24.066,4.956 24.472,4.78566667 24.808,4.445 C25.144,4.10433333 25.312,3.598 25.312,2.926 C25.312,2.58066667 25.2653333,2.28433333 25.172,2.037 C25.0786667,1.78966667 24.948,1.58666667 24.78,1.428 C24.612,1.26933333 24.416,1.15266667 24.192,1.078 C23.968,1.00333333 23.7253333,0.966 23.464,0.966 Z" id="Shape">
					</path>
					<path d="M36.064,9.968 L31.248,9.968 L31.248,9.436 C31.4346667,9.36133333 31.647,9.28433333 31.885,9.205 C32.123,9.12566667 32.3633333,9.06733333 32.606,9.03 L32.606,1.078 L30.982,1.078 L30.086,3.472 L29.512,3.472 C29.4746667,3.28533333 29.4373333,3.04733333 29.4,2.758 C29.3626667,2.46866667 29.33,2.17 29.302,1.862 C29.274,1.554 29.2506667,1.24833333 29.232,0.945 C29.2133333,0.641666667 29.204,0.382666667 29.204,0.168 L38.108,0.168 C38.108,0.392 38.0986667,0.653333333 38.08,0.952 C38.0613333,1.25066667 38.038,1.554 38.01,1.862 C37.982,2.17 37.9493333,2.46633333 37.912,2.751 C37.8746667,3.03566667 37.8373333,3.276 37.8,3.472 L37.226,3.472 L36.33,1.078 L34.706,1.078 L34.706,9.03 C34.9486667,9.07666667 35.189,9.13266667 35.427,9.198 C35.665,9.26333333 35.8773333,9.34266667 36.064,9.436 L36.064,9.968 Z" id="Path">
					</path>
					<path d="M41.776,9.968 L38.318,9.968 L38.318,9.436 C38.4673333,9.34266667 38.6283333,9.261 38.801,9.191 C38.9736667,9.121 39.144,9.06733333 39.312,9.03 L42.924,0 L43.96,0 L47.474,9.03 C47.6606667,9.06733333 47.8473333,9.121 48.034,9.191 C48.2206667,9.261 48.384,9.34266667 48.524,9.436 L48.524,9.968 L44.142,9.968 L44.142,9.436 C44.3193333,9.352 44.5106667,9.27266667 44.716,9.198 C44.9213333,9.12333333 45.1173333,9.06733333 45.304,9.03 L44.492,6.804 L41.384,6.804 L40.558,9.03 C40.9873333,9.086 41.3933333,9.22133333 41.776,9.436 L41.776,9.968 Z M41.72,5.894 L44.198,5.894 L43.288,3.22 L43.022,2.016 L42.994,2.016 L42.686,3.248 L41.72,5.894 Z" id="Shape">
					</path>
					<path d="M53.312,9.968 L48.944,9.968 L48.944,9.436 C49.3173333,9.23066667 49.6953333,9.09533333 50.078,9.03 L50.078,1.106 C49.8913333,1.078 49.6953333,1.02666667 49.49,0.952 C49.2846667,0.877333333 49.1026667,0.793333333 48.944,0.7 L48.944,0.168 L53.312,0.168 L53.312,0.7 C53.144,0.802666667 52.9596667,0.889 52.759,0.959 C52.5583333,1.029 52.3646667,1.078 52.178,1.106 L52.178,9.03 C52.3646667,9.06733333 52.5583333,9.11866667 52.759,9.184 C52.9596667,9.24933333 53.144,9.33333333 53.312,9.436 L53.312,9.968 Z" id="Path">
					</path>
					<path d="M54.012,0.168 L58.604,0.168 L58.604,0.7 C58.408,0.802666667 58.191,0.889 57.953,0.959 C57.715,1.029 57.484,1.078 57.26,1.106 L57.26,9.058 L59.962,9.058 L60.9,6.552 L61.474,6.552 C61.5113333,6.76666667 61.5463333,7.01866667 61.579,7.308 C61.6116667,7.59733333 61.6373333,7.90066667 61.656,8.218 C61.6746667,8.53533333 61.6886667,8.848 61.698,9.156 C61.7073333,9.464 61.7073333,9.73466667 61.698,9.968 L54.012,9.968 L54.012,9.436 C54.2266667,9.324 54.4296667,9.23533333 54.621,9.17 C54.8123333,9.10466667 54.992,9.058 55.16,9.03 L55.16,1.106 C54.7026667,1.03133333 54.32,0.896 54.012,0.7 L54.012,0.168 Z" id="Path">
					</path>
					<path d="M12.446,27.968 L8.26,27.968 L8.26,27.436 C8.44666667,27.3426667 8.62866667,27.2633333 8.806,27.198 C8.98333333,27.1326667 9.17466667,27.0766667 9.38,27.03 L9.38,21.178 L9.45,19.54 L9.338,19.54 L8.876,21.038 L6.174,27.968 L5.53,27.968 L2.842,21.094 L2.338,19.456 L2.212,19.456 L2.226,21.234 L2.226,26.974 C2.40333333,27.0113333 2.59933333,27.072 2.814,27.156 C3.02866667,27.24 3.22933333,27.3333333 3.416,27.436 L3.416,27.968 L0,27.968 L0,27.436 C0.149333333,27.3613333 0.333666667,27.2726667 0.553,27.17 C0.772333333,27.0673333 0.98,26.9973333 1.176,26.96 L1.176,19.106 C0.989333333,19.0686667 0.791,19.0173333 0.581,18.952 C0.371,18.8866667 0.186666667,18.8026667 0.028,18.7 L0.028,18.168 L3.822,18.168 L5.964,23.866 L6.37,25.21 L6.384,25.21 L6.804,23.838 L8.988,18.168 L12.46,18.168 L12.46,18.7 C12.3013333,18.7933333 12.131,18.875 11.949,18.945 C11.767,19.015 11.5826667,19.0686667 11.396,19.106 L11.396,27.044 C11.592,27.0813333 11.781,27.1373333 11.963,27.212 C12.145,27.2866667 12.306,27.3613333 12.446,27.436 L12.446,27.968 Z" id="Path">
					</path>
					<path d="M12.838,18.168 L17.15,18.168 L17.15,18.7 C16.842,18.896 16.4873333,19.0313333 16.086,19.106 L16.086,24.496 C16.086,24.9533333 16.1373333,25.336 16.24,25.644 C16.3426667,25.952 16.492,26.2016667 16.688,26.393 C16.884,26.5843333 17.1196667,26.722 17.395,26.806 C17.6703333,26.89 17.9806667,26.932 18.326,26.932 C18.634,26.932 18.9163333,26.8876667 19.173,26.799 C19.4296667,26.7103333 19.6536667,26.568 19.845,26.372 C20.0363333,26.176 20.1833333,25.9193333 20.286,25.602 C20.3886667,25.2846667 20.44,24.8926667 20.44,24.426 L20.44,19.176 C20.2253333,19.1293333 20.0036667,19.064 19.775,18.98 C19.5463333,18.896 19.3573333,18.8026667 19.208,18.7 L19.208,18.168 L22.68,18.168 L22.68,18.7 C22.512,18.8213333 22.3253333,18.9193333 22.12,18.994 C21.9146667,19.0686667 21.714,19.1293333 21.518,19.176 L21.518,24.44 C21.518,25.6346667 21.203,26.5423333 20.573,27.163 C19.943,27.7836667 19.054,28.094 17.906,28.094 C16.6553333,28.094 15.6893333,27.814 15.008,27.254 C14.3266667,26.694 13.986,25.798 13.986,24.566 L13.986,19.106 C13.7993333,19.078 13.6033333,19.029 13.398,18.959 C13.1926667,18.889 13.006,18.8026667 12.838,18.7 L12.838,18.168 Z" id="Path">
					</path>
					<path d="M23.03,18.168 L27.622,18.168 L27.622,18.7 C27.426,18.8026667 27.209,18.889 26.971,18.959 C26.733,19.029 26.502,19.078 26.278,19.106 L26.278,27.058 L28.98,27.058 L29.918,24.552 L30.492,24.552 C30.5293333,24.7666667 30.5643333,25.0186667 30.597,25.308 C30.6296667,25.5973333 30.6553333,25.9006667 30.674,26.218 C30.6926667,26.5353333 30.7066667,26.848 30.716,27.156 C30.7253333,27.464 30.7253333,27.7346667 30.716,27.968 L23.03,27.968 L23.03,27.436 C23.2446667,27.324 23.4476667,27.2353333 23.639,27.17 C23.8303333,27.1046667 24.01,27.058 24.178,27.03 L24.178,19.106 C23.7206667,19.0313333 23.338,18.896 23.03,18.7 L23.03,18.168 Z" id="Path">
					</path>
					<path d="M37.982,27.968 L33.166,27.968 L33.166,27.436 C33.3526667,27.3613333 33.565,27.2843333 33.803,27.205 C34.041,27.1256667 34.2813333,27.0673333 34.524,27.03 L34.524,19.078 L32.9,19.078 L32.004,21.472 L31.43,21.472 C31.3926667,21.2853333 31.3553333,21.0473333 31.318,20.758 C31.2806667,20.4686667 31.248,20.17 31.22,19.862 C31.192,19.554 31.1686667,19.2483333 31.15,18.945 C31.1313333,18.6416667 31.122,18.3826667 31.122,18.168 L40.026,18.168 C40.026,18.392 40.0166667,18.6533333 39.998,18.952 C39.9793333,19.2506667 39.956,19.554 39.928,19.862 C39.9,20.17 39.8673333,20.4663333 39.83,20.751 C39.7926667,21.0356667 39.7553333,21.276 39.718,21.472 L39.144,21.472 L38.248,19.078 L36.624,19.078 L36.624,27.03 C36.8666667,27.0766667 37.107,27.1326667 37.345,27.198 C37.583,27.2633333 37.7953333,27.3426667 37.982,27.436 L37.982,27.968 Z" id="Path">
					</path>
					<path d="M45.024,27.968 L40.656,27.968 L40.656,27.436 C41.0293333,27.2306667 41.4073333,27.0953333 41.79,27.03 L41.79,19.106 C41.6033333,19.078 41.4073333,19.0266667 41.202,18.952 C40.9966667,18.8773333 40.8146667,18.7933333 40.656,18.7 L40.656,18.168 L45.024,18.168 L45.024,18.7 C44.856,18.8026667 44.6716667,18.889 44.471,18.959 C44.2703333,19.029 44.0766667,19.078 43.89,19.106 L43.89,27.03 C44.0766667,27.0673333 44.2703333,27.1186667 44.471,27.184 C44.6716667,27.2493333 44.856,27.3333333 45.024,27.436 L45.024,27.968 Z" id="Path">
					</path>
					<path d="M47.642,26.806 C47.7446667,26.9086667 47.8893333,27.0043333 48.076,27.093 C48.2626667,27.1816667 48.51,27.226 48.818,27.226 C49.3313333,27.226 49.7583333,27.093 50.099,26.827 C50.4396667,26.561 50.61,26.19 50.61,25.714 C50.61,25.3686667 50.5003333,25.0793333 50.281,24.846 C50.0616667,24.6126667 49.784,24.398 49.448,24.202 C49.112,24.006 48.7526667,23.8123333 48.37,23.621 C47.9873333,23.4296667 47.628,23.2033333 47.292,22.942 C46.956,22.6806667 46.6783333,22.3703333 46.459,22.011 C46.2396667,21.6516667 46.13,21.206 46.13,20.674 C46.13,20.2166667 46.214,19.82 46.382,19.484 C46.55,19.148 46.781,18.8703333 47.075,18.651 C47.369,18.4316667 47.7166667,18.2683333 48.118,18.161 C48.5193333,18.0536667 48.9533333,18 49.42,18 C49.9893333,18 50.519,18.0396667 51.009,18.119 C51.499,18.1983333 51.94,18.322 52.332,18.49 C52.3226667,18.6766667 52.3063333,18.8913333 52.283,19.134 C52.2596667,19.3766667 52.2293333,19.617 52.192,19.855 C52.1546667,20.093 52.115,20.317 52.073,20.527 C52.031,20.737 51.9913333,20.912 51.954,21.052 L51.38,21.052 L50.736,19.134 C50.624,19.078 50.4583333,19.0266667 50.239,18.98 C50.0196667,18.9333333 49.7933333,18.91 49.56,18.91 C49.168,18.91 48.8366667,19.0126667 48.566,19.218 C48.2953333,19.4233333 48.16,19.722 48.16,20.114 C48.16,20.4686667 48.272,20.7696667 48.496,21.017 C48.72,21.2643333 49,21.4906667 49.336,21.696 C49.672,21.9013333 50.0383333,22.1043333 50.435,22.305 C50.8316667,22.5056667 51.198,22.7366667 51.534,22.998 C51.87,23.2593333 52.15,23.565 52.374,23.915 C52.598,24.265 52.71,24.6966667 52.71,25.21 C52.71,26.1433333 52.395,26.8643333 51.765,27.373 C51.135,27.8816667 50.2086667,28.136 48.986,28.136 C48.6873333,28.136 48.3863333,28.1173333 48.083,28.08 C47.7796667,28.0426667 47.4926667,27.9913333 47.222,27.926 C46.9513333,27.8606667 46.711,27.7906667 46.501,27.716 C46.291,27.6413333 46.1346667,27.562 46.032,27.478 C46.0413333,27.2633333 46.0646667,27.0323333 46.102,26.785 C46.1393333,26.5376667 46.179,26.2903333 46.221,26.043 C46.263,25.7956667 46.3073333,25.56 46.354,25.336 C46.4006667,25.112 46.4473333,24.916 46.494,24.748 L47.068,24.748 L47.642,26.806 Z" id="Path">
					</path>
					<path d="M60.9,18.168 C60.8813333,18.588 60.8486667,19.022 60.802,19.47 C60.7553333,19.918 60.6946667,20.338 60.62,20.73 L60.046,20.73 L59.402,19.078 L56.784,19.078 L56.784,22.508 L58.492,22.508 L59.108,21.43 L59.556,21.43 C59.6026667,21.8873333 59.626,22.396 59.626,22.956 C59.626,23.516 59.6026667,24.0386667 59.556,24.524 L59.108,24.524 L58.492,23.418 L56.784,23.418 L56.784,27.058 L59.514,27.058 L60.256,25.28 L60.83,25.28 C60.8673333,25.4573333 60.9046667,25.658 60.942,25.882 C60.9793333,26.106 61.0096667,26.337 61.033,26.575 C61.0563333,26.813 61.075,27.0533333 61.089,27.296 C61.103,27.5386667 61.11,27.7626667 61.11,27.968 L53.536,27.968 L53.536,27.436 C53.6946667,27.352 53.872,27.2726667 54.068,27.198 C54.264,27.1233333 54.4693333,27.0673333 54.684,27.03 L54.684,19.106 C54.4973333,19.0686667 54.299,19.015 54.089,18.945 C53.879,18.875 53.6946667,18.7933333 53.536,18.7 L53.536,18.168 L60.9,18.168 Z" id="Path">
					</path>
					<path d="M65.24,27.03 C65.4546667,27.0766667 65.646,27.1373333 65.814,27.212 C65.982,27.2866667 66.1453333,27.3613333 66.304,27.436 L66.304,27.968 L61.992,27.968 L61.992,27.436 C62.1973333,27.324 62.3933333,27.2376667 62.58,27.177 C62.7666667,27.1163333 62.9533333,27.0673333 63.14,27.03 L63.14,19.106 C62.6733333,19.0033333 62.2906667,18.868 61.992,18.7 L61.992,18.168 L63.476,18.168 C63.6626667,18.168 63.875,18.1633333 64.113,18.154 C64.351,18.1446667 64.6006667,18.133 64.862,18.119 C65.1233333,18.105 65.3893333,18.091 65.66,18.077 C65.9306667,18.063 66.192,18.056 66.444,18.056 C66.9573333,18.056 67.431,18.1143333 67.865,18.231 C68.299,18.3476667 68.6723333,18.5226667 68.985,18.756 C69.2976667,18.9893333 69.5403333,19.281 69.713,19.631 C69.8856667,19.981 69.972,20.3893333 69.972,20.856 C69.972,21.528 69.8086667,22.0786667 69.482,22.508 C69.1553333,22.9373333 68.7073333,23.2593333 68.138,23.474 C68.5113333,24.062 68.908,24.6616667 69.328,25.273 C69.748,25.8843333 70.1913333,26.4746667 70.658,27.044 L71.33,27.492 L71.33,27.968 L68.992,27.968 L68.39,27.506 C67.9606667,26.9926667 67.5803333,26.3976667 67.249,25.721 C66.9176667,25.0443333 66.626,24.3793333 66.374,23.726 L65.24,23.726 L65.24,27.03 Z M65.94,18.966 C65.6506667,18.966 65.4173333,18.994 65.24,19.05 L65.24,22.956 L66.066,22.956 C66.542,22.956 66.948,22.7856667 67.284,22.445 C67.62,22.1043333 67.788,21.598 67.788,20.926 C67.788,20.5806667 67.7413333,20.2843333 67.648,20.037 C67.5546667,19.7896667 67.424,19.5866667 67.256,19.428 C67.088,19.2693333 66.892,19.1526667 66.668,19.078 C66.444,19.0033333 66.2013333,18.966 65.94,18.966 Z" id="Shape">
					</path>
					<path d="M79.366,19.106 C79.142,19.0593333 78.9296667,18.9986667 78.729,18.924 C78.5283333,18.8493333 78.3486667,18.7746667 78.19,18.7 L78.19,18.168 L81.746,18.168 L81.746,18.7 C81.634,18.7746667 81.487,18.8493333 81.305,18.924 C81.123,18.9986667 80.934,19.0593333 80.738,19.106 L77.518,27.968 L76.132,28.136 L72.52,19.106 C72.3333333,19.0593333 72.1466667,19.001 71.96,18.931 C71.7733333,18.861 71.61,18.784 71.47,18.7 L71.47,18.168 L76.132,18.168 L76.132,18.7 C75.9733333,18.7746667 75.796,18.8493333 75.6,18.924 C75.404,18.9986667 75.1986667,19.0593333 74.984,19.106 L76.944,24.622 L77.266,25.938 L77.294,25.938 L77.602,24.594 L79.366,19.106 Z" id="Path">
					</path>
					<path d="M86.534,27.968 L82.166,27.968 L82.166,27.436 C82.5393333,27.2306667 82.9173333,27.0953333 83.3,27.03 L83.3,19.106 C83.1133333,19.078 82.9173333,19.0266667 82.712,18.952 C82.5066667,18.8773333 82.3246667,18.7933333 82.166,18.7 L82.166,18.168 L86.534,18.168 L86.534,18.7 C86.366,18.8026667 86.1816667,18.889 85.981,18.959 C85.7803333,19.029 85.5866667,19.078 85.4,19.106 L85.4,27.03 C85.5866667,27.0673333 85.7803333,27.1186667 85.981,27.184 C86.1816667,27.2493333 86.366,27.3333333 86.534,27.436 L86.534,27.968 Z" id="Path">
					</path>
					<path d="M94.514,25.028 L95.088,25.028 C95.1253333,25.1773333 95.1603333,25.357 95.193,25.567 C95.2256667,25.777 95.2536667,26.001 95.277,26.239 C95.3003333,26.477 95.3166667,26.7126667 95.326,26.946 C95.3353333,27.1793333 95.34,27.3893333 95.34,27.576 C95.0133333,27.7813333 94.605,27.926 94.115,28.01 C93.625,28.094 93.1233333,28.136 92.61,28.136 C91.8353333,28.136 91.133,28.0403333 90.503,27.849 C89.873,27.6576667 89.3363333,27.3543333 88.893,26.939 C88.4496667,26.5236667 88.1066667,25.9963333 87.864,25.357 C87.6213333,24.7176667 87.5,23.95 87.5,23.054 C87.5,22.1673333 87.633,21.4043333 87.899,20.765 C88.165,20.1256667 88.522,19.6006667 88.97,19.19 C89.418,18.7793333 89.9383333,18.4783333 90.531,18.287 C91.1236667,18.0956667 91.7466667,18 92.4,18 C93.016,18 93.5736667,18.0443333 94.073,18.133 C94.5723333,18.2216667 94.9806667,18.3406667 95.298,18.49 C95.298,18.6393333 95.291,18.8306667 95.277,19.064 C95.263,19.2973333 95.2396667,19.5423333 95.207,19.799 C95.1743333,20.0556667 95.137,20.3076667 95.095,20.555 C95.053,20.8023333 95.0133333,21.01 94.976,21.178 L94.388,21.178 L93.618,19.064 C93.534,19.0173333 93.3986667,18.98 93.212,18.952 C93.0253333,18.924 92.834,18.91 92.638,18.91 C92.2553333,18.91 91.896,18.987 91.56,19.141 C91.224,19.295 90.9253333,19.54 90.664,19.876 C90.4026667,20.212 90.1973333,20.6436667 90.048,21.171 C89.8986667,21.6983333 89.824,22.3306667 89.824,23.068 C89.824,24.4026667 90.09,25.4293333 90.622,26.148 C91.154,26.8666667 91.8773333,27.226 92.792,27.226 C93.0533333,27.226 93.275,27.205 93.457,27.163 C93.639,27.121 93.7626667,27.0626667 93.828,26.988 L94.514,25.028 Z" id="Path">
					</path>
					<path d="M103.726,18.168 C103.707333,18.588 103.674667,19.022 103.628,19.47 C103.581333,19.918 103.520667,20.338 103.446,20.73 L102.872,20.73 L102.228,19.078 L99.61,19.078 L99.61,22.508 L101.318,22.508 L101.934,21.43 L102.382,21.43 C102.428667,21.8873333 102.452,22.396 102.452,22.956 C102.452,23.516 102.428667,24.0386667 102.382,24.524 L101.934,24.524 L101.318,23.418 L99.61,23.418 L99.61,27.058 L102.34,27.058 L103.082,25.28 L103.656,25.28 C103.693333,25.4573333 103.730667,25.658 103.768,25.882 C103.805333,26.106 103.835667,26.337 103.859,26.575 C103.882333,26.813 103.901,27.0533333 103.915,27.296 C103.929,27.5386667 103.936,27.7626667 103.936,27.968 L96.362,27.968 L96.362,27.436 C96.5206667,27.352 96.698,27.2726667 96.894,27.198 C97.09,27.1233333 97.2953333,27.0673333 97.51,27.03 L97.51,19.106 C97.3233333,19.0686667 97.125,19.015 96.915,18.945 C96.705,18.875 96.5206667,18.7933333 96.362,18.7 L96.362,18.168 L103.726,18.168 Z" id="Path">
					</path>
					<path d="M106.736,26.806 C106.838667,26.9086667 106.983333,27.0043333 107.17,27.093 C107.356667,27.1816667 107.604,27.226 107.912,27.226 C108.425333,27.226 108.852333,27.093 109.193,26.827 C109.533667,26.561 109.704,26.19 109.704,25.714 C109.704,25.3686667 109.594333,25.0793333 109.375,24.846 C109.155667,24.6126667 108.878,24.398 108.542,24.202 C108.206,24.006 107.846667,23.8123333 107.464,23.621 C107.081333,23.4296667 106.722,23.2033333 106.386,22.942 C106.05,22.6806667 105.772333,22.3703333 105.553,22.011 C105.333667,21.6516667 105.224,21.206 105.224,20.674 C105.224,20.2166667 105.308,19.82 105.476,19.484 C105.644,19.148 105.875,18.8703333 106.169,18.651 C106.463,18.4316667 106.810667,18.2683333 107.212,18.161 C107.613333,18.0536667 108.047333,18 108.514,18 C109.083333,18 109.613,18.0396667 110.103,18.119 C110.593,18.1983333 111.034,18.322 111.426,18.49 C111.416667,18.6766667 111.400333,18.8913333 111.377,19.134 C111.353667,19.3766667 111.323333,19.617 111.286,19.855 C111.248667,20.093 111.209,20.317 111.167,20.527 C111.125,20.737 111.085333,20.912 111.048,21.052 L110.474,21.052 L109.83,19.134 C109.718,19.078 109.552333,19.0266667 109.333,18.98 C109.113667,18.9333333 108.887333,18.91 108.654,18.91 C108.262,18.91 107.930667,19.0126667 107.66,19.218 C107.389333,19.4233333 107.254,19.722 107.254,20.114 C107.254,20.4686667 107.366,20.7696667 107.59,21.017 C107.814,21.2643333 108.094,21.4906667 108.43,21.696 C108.766,21.9013333 109.132333,22.1043333 109.529,22.305 C109.925667,22.5056667 110.292,22.7366667 110.628,22.998 C110.964,23.2593333 111.244,23.565 111.468,23.915 C111.692,24.265 111.804,24.6966667 111.804,25.21 C111.804,26.1433333 111.489,26.8643333 110.859,27.373 C110.229,27.8816667 109.302667,28.136 108.08,28.136 C107.781333,28.136 107.480333,28.1173333 107.177,28.08 C106.873667,28.0426667 106.586667,27.9913333 106.316,27.926 C106.045333,27.8606667 105.805,27.7906667 105.595,27.716 C105.385,27.6413333 105.228667,27.562 105.126,27.478 C105.135333,27.2633333 105.158667,27.0323333 105.196,26.785 C105.233333,26.5376667 105.273,26.2903333 105.315,26.043 C105.357,25.7956667 105.401333,25.56 105.448,25.336 C105.494667,25.112 105.541333,24.916 105.588,24.748 L106.162,24.748 L106.736,26.806 Z" id="Path">
					</path>
					<path d="M3.248,45.03 C3.46266667,45.0766667 3.654,45.1373333 3.822,45.212 C3.99,45.2866667 4.15333333,45.3613333 4.312,45.436 L4.312,45.968 L0,45.968 L0,45.436 C0.205333333,45.324 0.401333333,45.2376667 0.588,45.177 C0.774666667,45.1163333 0.961333333,45.0673333 1.148,45.03 L1.148,37.106 C0.681333333,37.0033333 0.298666667,36.868 0,36.7 L0,36.168 L1.484,36.168 C1.67066667,36.168 1.883,36.1633333 2.121,36.154 C2.359,36.1446667 2.60866667,36.133 2.87,36.119 C3.13133333,36.105 3.39733333,36.091 3.668,36.077 C3.93866667,36.063 4.2,36.056 4.452,36.056 C4.96533333,36.056 5.439,36.1143333 5.873,36.231 C6.307,36.3476667 6.68033333,36.5226667 6.993,36.756 C7.30566667,36.9893333 7.54833333,37.281 7.721,37.631 C7.89366667,37.981 7.98,38.3893333 7.98,38.856 C7.98,39.528 7.81666667,40.0786667 7.49,40.508 C7.16333333,40.9373333 6.71533333,41.2593333 6.146,41.474 C6.51933333,42.062 6.916,42.6616667 7.336,43.273 C7.756,43.8843333 8.19933333,44.4746667 8.666,45.044 L9.338,45.492 L9.338,45.968 L7,45.968 L6.398,45.506 C5.96866667,44.9926667 5.58833333,44.3976667 5.257,43.721 C4.92566667,43.0443333 4.634,42.3793333 4.382,41.726 L3.248,41.726 L3.248,45.03 Z M3.948,36.966 C3.65866667,36.966 3.42533333,36.994 3.248,37.05 L3.248,40.956 L4.074,40.956 C4.55,40.956 4.956,40.7856667 5.292,40.445 C5.628,40.1043333 5.796,39.598 5.796,38.926 C5.796,38.5806667 5.74933333,38.2843333 5.656,38.037 C5.56266667,37.7896667 5.432,37.5866667 5.264,37.428 C5.096,37.2693333 4.9,37.1526667 4.676,37.078 C4.452,37.0033333 4.20933333,36.966 3.948,36.966 Z" id="Shape">
					</path>
					<path d="M17.122,36.168 C17.1033333,36.588 17.0706667,37.022 17.024,37.47 C16.9773333,37.918 16.9166667,38.338 16.842,38.73 L16.268,38.73 L15.624,37.078 L13.006,37.078 L13.006,40.508 L14.714,40.508 L15.33,39.43 L15.778,39.43 C15.8246667,39.8873333 15.848,40.396 15.848,40.956 C15.848,41.516 15.8246667,42.0386667 15.778,42.524 L15.33,42.524 L14.714,41.418 L13.006,41.418 L13.006,45.058 L15.736,45.058 L16.478,43.28 L17.052,43.28 C17.0893333,43.4573333 17.1266667,43.658 17.164,43.882 C17.2013333,44.106 17.2316667,44.337 17.255,44.575 C17.2783333,44.813 17.297,45.0533333 17.311,45.296 C17.325,45.5386667 17.332,45.7626667 17.332,45.968 L9.758,45.968 L9.758,45.436 C9.91666667,45.352 10.094,45.2726667 10.29,45.198 C10.486,45.1233333 10.6913333,45.0673333 10.906,45.03 L10.906,37.106 C10.7193333,37.0686667 10.521,37.015 10.311,36.945 C10.101,36.875 9.91666667,36.7933333 9.758,36.7 L9.758,36.168 L17.122,36.168 Z" id="Path">
					</path>
					<path d="M25.004,45.968 L20.188,45.968 L20.188,45.436 C20.3746667,45.3613333 20.587,45.2843333 20.825,45.205 C21.063,45.1256667 21.3033333,45.0673333 21.546,45.03 L21.546,37.078 L19.922,37.078 L19.026,39.472 L18.452,39.472 C18.4146667,39.2853333 18.3773333,39.0473333 18.34,38.758 C18.3026667,38.4686667 18.27,38.17 18.242,37.862 C18.214,37.554 18.1906667,37.2483333 18.172,36.945 C18.1533333,36.6416667 18.144,36.3826667 18.144,36.168 L27.048,36.168 C27.048,36.392 27.0386667,36.6533333 27.02,36.952 C27.0013333,37.2506667 26.978,37.554 26.95,37.862 C26.922,38.17 26.8893333,38.4663333 26.852,38.751 C26.8146667,39.0356667 26.7773333,39.276 26.74,39.472 L26.166,39.472 L25.27,37.078 L23.646,37.078 L23.646,45.03 C23.8886667,45.0766667 24.129,45.1326667 24.367,45.198 C24.605,45.2633333 24.8173333,45.3426667 25.004,45.436 L25.004,45.968 Z" id="Path">
					</path>
					<path d="M30.786,45.03 C31.0006667,45.0766667 31.192,45.1373333 31.36,45.212 C31.528,45.2866667 31.6913333,45.3613333 31.85,45.436 L31.85,45.968 L27.538,45.968 L27.538,45.436 C27.7433333,45.324 27.9393333,45.2376667 28.126,45.177 C28.3126667,45.1163333 28.4993333,45.0673333 28.686,45.03 L28.686,37.106 C28.2193333,37.0033333 27.8366667,36.868 27.538,36.7 L27.538,36.168 L29.022,36.168 C29.2086667,36.168 29.421,36.1633333 29.659,36.154 C29.897,36.1446667 30.1466667,36.133 30.408,36.119 C30.6693333,36.105 30.9353333,36.091 31.206,36.077 C31.4766667,36.063 31.738,36.056 31.99,36.056 C32.5033333,36.056 32.977,36.1143333 33.411,36.231 C33.845,36.3476667 34.2183333,36.5226667 34.531,36.756 C34.8436667,36.9893333 35.0863333,37.281 35.259,37.631 C35.4316667,37.981 35.518,38.3893333 35.518,38.856 C35.518,39.528 35.3546667,40.0786667 35.028,40.508 C34.7013333,40.9373333 34.2533333,41.2593333 33.684,41.474 C34.0573333,42.062 34.454,42.6616667 34.874,43.273 C35.294,43.8843333 35.7373333,44.4746667 36.204,45.044 L36.876,45.492 L36.876,45.968 L34.538,45.968 L33.936,45.506 C33.5066667,44.9926667 33.1263333,44.3976667 32.795,43.721 C32.4636667,43.0443333 32.172,42.3793333 31.92,41.726 L30.786,41.726 L30.786,45.03 Z M31.486,36.966 C31.1966667,36.966 30.9633333,36.994 30.786,37.05 L30.786,40.956 L31.612,40.956 C32.088,40.956 32.494,40.7856667 32.83,40.445 C33.166,40.1043333 33.334,39.598 33.334,38.926 C33.334,38.5806667 33.2873333,38.2843333 33.194,38.037 C33.1006667,37.7896667 32.97,37.5866667 32.802,37.428 C32.634,37.2693333 32.438,37.1526667 32.214,37.078 C31.99,37.0033333 31.7473333,36.966 31.486,36.966 Z" id="Shape">
					</path>
					<path d="M40.474,45.968 L37.016,45.968 L37.016,45.436 C37.1653333,45.3426667 37.3263333,45.261 37.499,45.191 C37.6716667,45.121 37.842,45.0673333 38.01,45.03 L41.622,36 L42.658,36 L46.172,45.03 C46.3586667,45.0673333 46.5453333,45.121 46.732,45.191 C46.9186667,45.261 47.082,45.3426667 47.222,45.436 L47.222,45.968 L42.84,45.968 L42.84,45.436 C43.0173333,45.352 43.2086667,45.2726667 43.414,45.198 C43.6193333,45.1233333 43.8153333,45.0673333 44.002,45.03 L43.19,42.804 L40.082,42.804 L39.256,45.03 C39.6853333,45.086 40.0913333,45.2213333 40.474,45.436 L40.474,45.968 Z M40.418,41.894 L42.896,41.894 L41.986,39.22 L41.72,38.016 L41.692,38.016 L41.384,39.248 L40.418,41.894 Z" id="Shape">
					</path>
					<path d="M52.01,45.968 L47.642,45.968 L47.642,45.436 C48.0153333,45.2306667 48.3933333,45.0953333 48.776,45.03 L48.776,37.106 C48.5893333,37.078 48.3933333,37.0266667 48.188,36.952 C47.9826667,36.8773333 47.8006667,36.7933333 47.642,36.7 L47.642,36.168 L52.01,36.168 L52.01,36.7 C51.842,36.8026667 51.6576667,36.889 51.457,36.959 C51.2563333,37.029 51.0626667,37.078 50.876,37.106 L50.876,45.03 C51.0626667,45.0673333 51.2563333,45.1186667 51.457,45.184 C51.6576667,45.2493333 51.842,45.3333333 52.01,45.436 L52.01,45.968 Z" id="Path">
					</path>
					<path d="M59.5,45.968 L54.684,45.968 L54.684,45.436 C54.8706667,45.3613333 55.083,45.2843333 55.321,45.205 C55.559,45.1256667 55.7993333,45.0673333 56.042,45.03 L56.042,37.078 L54.418,37.078 L53.522,39.472 L52.948,39.472 C52.9106667,39.2853333 52.8733333,39.0473333 52.836,38.758 C52.7986667,38.4686667 52.766,38.17 52.738,37.862 C52.71,37.554 52.6866667,37.2483333 52.668,36.945 C52.6493333,36.6416667 52.64,36.3826667 52.64,36.168 L61.544,36.168 C61.544,36.392 61.5346667,36.6533333 61.516,36.952 C61.4973333,37.2506667 61.474,37.554 61.446,37.862 C61.418,38.17 61.3853333,38.4663333 61.348,38.751 C61.3106667,39.0356667 61.2733333,39.276 61.236,39.472 L60.662,39.472 L59.766,37.078 L58.142,37.078 L58.142,45.03 C58.3846667,45.0766667 58.625,45.1326667 58.863,45.198 C59.101,45.2633333 59.3133333,45.3426667 59.5,45.436 L59.5,45.968 Z" id="Path">
					</path>
					<!-- <path d="M69.398,36.168 C69.3793333,36.588 69.3466667,37.022 69.3,37.47 C69.2533333,37.918 69.1926667,38.338 69.118,38.73 L68.544,38.73 L67.9,37.078 L65.282,37.078 L65.282,40.508 L66.99,40.508 L67.606,39.43 L68.054,39.43 C68.1006667,39.8873333 68.124,40.396 68.124,40.956 C68.124,41.516 68.1006667,42.0386667 68.054,42.524 L67.606,42.524 L66.99,41.418 L65.282,41.418 L65.282,45.058 L68.012,45.058 L68.754,43.28 L69.328,43.28 C69.3653333,43.4573333 69.4026667,43.658 69.44,43.882 C69.4773333,44.106 69.5076667,44.337 69.531,44.575 C69.5543333,44.813 69.573,45.0533333 69.587,45.296 C69.601,45.5386667 69.608,45.7626667 69.608,45.968 L62.034,45.968 L62.034,45.436 C62.1926667,45.352 62.37,45.2726667 62.566,45.198 C62.762,45.1233333 62.9673333,45.0673333 63.182,45.03 L63.182,37.106 C62.9953333,37.0686667 62.797,37.015 62.587,36.945 C62.377,36.875 62.1926667,36.7933333 62.034,36.7 L62.034,36.168 L69.398,36.168 Z M66.822,33.396 C66.9713333,33.3866667 67.1416667,33.396 67.333,33.424 C67.5243333,33.452 67.711,33.4916667 67.893,33.543 C68.075,33.5943333 68.2383333,33.6526667 68.383,33.718 C68.5276667,33.7833333 68.628,33.8486667 68.684,33.914 L68.684,34.194 L65.226,35.538 L64.834,35.202 L66.822,33.396 Z" id="Shape"></path> -->
					<path d="M69.398,36.168 C69.3793333,36.588 69.3466667,37.022 69.3,37.47 C69.2533333,37.918 69.1926667,38.338 69.118,38.73 L68.544,38.73 L67.9,37.078 L65.282,37.078 L65.282,40.508 L66.99,40.508 L67.606,39.43 L68.054,39.43 C68.1006667,39.8873333 68.124,40.396 68.124,40.956 C68.124,41.516 68.1006667,42.0386667 68.054,42.524 L67.606,42.524 L66.99,41.418 L65.282,41.418 L65.282,45.058 L68.012,45.058 L68.754,43.28 L69.328,43.28 C69.3653333,43.4573333 69.4026667,43.658 69.44,43.882 C69.4773333,44.106 69.5076667,44.337 69.531,44.575 C69.5543333,44.813 69.573,45.0533333 69.587,45.296 C69.601,45.5386667 69.608,45.7626667 69.608,45.968 L62.034,45.968 L62.034,45.436 C62.1926667,45.352 62.37,45.2726667 62.566,45.198 C62.762,45.1233333 62.9673333,45.0673333 63.182,45.03 L63.182,37.106 C62.9953333,37.0686667 62.797,37.015 62.587,36.945 C62.377,36.875 62.1926667,36.7933333 62.034,36.7 L62.034,36.168 L69.398,36.168 Z" id="Shape">
					</path>
				</g>
				<rect id="Rectangle" fill="#B09A60" x="0" y="0" width="2" height="46">
				</rect>
			</g>
		</g>
	</g>
</svg>
