<?xml version="1.0" encoding="UTF-8"?><svg version="1.1" width="36px" height="40px" viewBox="0 0 36.0 40.0" xmlns="http://www.w3.org/2000/svg" xmlns:xlink="http://www.w3.org/1999/xlink"><defs><clipPath id="i0"><path d="M1440,0 L1440,1776 L0,1776 L0,0 L1440,0 Z"></path></clipPath><clipPath id="i1"><path d="M31.9406549,0 C32.3909591,0 32.7560027,0.365043609 32.7560027,0.815347722 L32.756,25.393 L34.4083903,25.3937928 C34.8240556,25.3937928 35.167073,25.7048359 35.2173853,26.1068651 L35.223738,26.2091406 L35.223738,39.1846523 C35.223738,39.6349564 34.8586944,40 34.4083903,40 L0.815347722,40 C0.365043609,40 0,39.6349564 0,39.1846523 L0,26.2091406 C0,25.7588365 0.365043609,25.3937928 0.815347722,25.3937928 L2.467,25.393 L2.46773536,0.815347722 C2.46773536,0.365043609 2.83277896,0 3.28308308,0 L31.9406549,0 Z M9.36978417,27.0244604 L1.63069544,27.0244604 L1.63069544,38.3693046 L33.5923261,38.3693046 L33.5923261,27.0244604 L25.8522782,27.0244604 L24.4806982,29.9759855 C24.3618045,30.231607 24.1207389,30.405326 23.8458861,30.4407744 L23.7414052,30.447476 L11.4823328,30.447476 C11.1651745,30.447476 10.8767952,30.2635597 10.7430398,29.9759855 L9.36978417,27.0244604 Z M22.388131,33.601202 C22.8384351,33.601202 23.2034787,33.9662456 23.2034787,34.4165497 C23.2034787,34.8668539 22.8384351,35.2318975 22.388131,35.2318975 L12.835607,35.2318975 C12.3853029,35.2318975 12.0202593,34.8668539 12.0202593,34.4165497 C12.0202593,33.9662456 12.3853029,33.601202 12.835607,33.601202 L22.388131,33.601202 Z M21.5721823,1.63069544 L13.6508393,1.63069544 L13.65,28.816 L21.572,28.816 L21.5721823,1.63069544 Z M12.0201439,1.63069544 L4.09784173,1.63069544 L4.098,25.393 L9.89024548,25.3937928 C10.167759,25.3937928 10.4232386,25.5346038 10.572378,25.7624588 L10.6295385,25.8652834 L12.0019185,28.816307 L12.02,28.816 L12.0201439,1.63069544 Z M31.1251799,1.63069544 L23.203,1.63 L23.203,28.816 L23.2211031,28.816307 L24.5941995,25.8652834 C24.7130932,25.6096619 24.9541589,25.4359429 25.2290116,25.4004945 L25.3334925,25.3937928 L31.125,25.393 L31.1251799,1.63069544 Z M8.64404241,20.8645001 C8.9624555,21.1829132 8.9624555,21.6991629 8.64404241,22.0175759 C8.32562931,22.335989 7.80937969,22.335989 7.4909666,22.0175759 C7.17255351,21.6991629 7.17255351,21.1829132 7.4909666,20.8645001 C7.80937969,20.546087 8.32562931,20.546087 8.64404241,20.8645001 Z M18.1965664,20.8645001 C18.5149795,21.1829132 18.5149795,21.6991629 18.1965664,22.0175759 C17.8781533,22.335989 17.3619036,22.335989 17.0434906,22.0175759 C16.7250775,21.6991629 16.7250775,21.1829132 17.0434906,20.8645001 C17.3619036,20.546087 17.8781533,20.546087 18.1965664,20.8645001 Z M27.7490903,20.8645001 C28.0675034,21.1829132 28.0675034,21.6991629 27.7490903,22.0175759 C27.4306772,22.335989 26.9144276,22.335989 26.5960145,22.0175759 C26.2776014,21.6991629 26.2776014,21.1829132 26.5960145,20.8645001 C26.9144276,20.546087 27.4306772,20.546087 27.7490903,20.8645001 Z M8.0675045,9.63212832 C8.51780862,9.63212832 8.88285222,9.99717193 8.88285222,10.447476 L8.88285222,16.6566166 C8.88285222,17.1069207 8.51780862,17.4719643 8.0675045,17.4719643 C7.61720039,17.4719643 7.25215678,17.1069207 7.25215678,16.6566166 L7.25215678,10.447476 C7.25215678,9.99717193 7.61720039,9.63212832 8.0675045,9.63212832 Z M17.6200285,9.63212832 C18.0703326,9.63212832 18.4353762,9.99717193 18.4353762,10.447476 L18.4353762,16.6566166 C18.4353762,17.1069207 18.0703326,17.4719643 17.6200285,17.4719643 C17.1697243,17.4719643 16.8046807,17.1069207 16.8046807,16.6566166 L16.8046807,10.447476 C16.8046807,9.99717193 17.1697243,9.63212832 17.6200285,9.63212832 Z M27.1725524,9.63212832 C27.6228565,9.63212832 27.9879001,9.99717193 27.9879001,10.447476 L27.9879001,16.6566166 C27.9879001,17.1069207 27.6228565,17.4719643 27.1725524,17.4719643 C26.7222483,17.4719643 26.3572047,17.1069207 26.3572047,16.6566166 L26.3572047,10.447476 C26.3572047,9.99717193 26.7222483,9.63212832 27.1725524,9.63212832 Z M8.64404241,5.02323124 C8.9624555,5.34164434 8.9624555,5.85789396 8.64404241,6.17630705 C8.32562931,6.49472014 7.80937969,6.49472014 7.4909666,6.17630705 C7.17255351,5.85789396 7.17255351,5.34164434 7.4909666,5.02323124 C7.80937969,4.70481815 8.32562931,4.70481815 8.64404241,5.02323124 Z M18.1965664,5.02323124 C18.5149795,5.34164434 18.5149795,5.85789396 18.1965664,6.17630705 C17.8781533,6.49472014 17.3619036,6.49472014 17.0434906,6.17630705 C16.7250775,5.85789396 16.7250775,5.34164434 17.0434906,5.02323124 C17.3619036,4.70481815 17.8781533,4.70481815 18.1965664,5.02323124 Z M27.7490903,5.02323124 C28.0675034,5.34164434 28.0675034,5.85789396 27.7490903,6.17630705 C27.4306772,6.49472014 26.9144276,6.49472014 26.5960145,6.17630705 C26.2776014,5.85789396 26.2776014,5.34164434 26.5960145,5.02323124 C26.9144276,4.70481815 27.4306772,4.70481815 27.7490903,5.02323124 Z"></path></clipPath><linearGradient id="i2" x1="35.223738px" y1="20px" x2="0px" y2="20px" gradientUnits="userSpaceOnUse"><stop stop-color="#CA459E" offset="0%"></stop><stop stop-color="#2E21AB" offset="100%"></stop></linearGradient></defs><g transform="translate(-301.0 -275.0)"><g clip-path="url(#i0)"><g transform="translate(300.9999999999992 275.0)"><g clip-path="url(#i1)"><polygon points="0,0 35.223738,0 35.223738,40 0,40 0,0" stroke="none" fill="url(#i2)"></polygon></g></g></g></g></svg>