<?xml version="1.0" encoding="UTF-8"?><svg version="1.1" width="40px" height="40px" viewBox="0 0 40.0 40.0" xmlns="http://www.w3.org/2000/svg" xmlns:xlink="http://www.w3.org/1999/xlink"><defs><clipPath id="i0"><path d="M1440,0 L1440,1776 L0,1776 L0,0 L1440,0 Z"></path></clipPath><clipPath id="i1"><path d="M36.5936196,0 C38.3862098,0 39.8394693,1.45325945 39.8394693,3.24584962 L39.8405852,31.1681588 C39.8490057,31.3906959 39.7714344,31.6203167 39.5864487,31.8053024 L31.6468425,39.7452263 C31.6192666,39.772804 31.5900183,39.7983249 31.5593357,39.82169 C31.3920065,39.9518119 31.1980594,40.0065547 31.0092208,39.9993788 L12.7737839,39.9982682 C10.9811937,39.9982682 9.52793429,38.5450087 9.52793429,36.7524185 L9.527294,20.748153 C4.19255105,20.3088038 0,15.8398999 0,10.3918003 C0,4.65258098 4.65258098,0 10.3918003,0 L36.5936196,0 Z M16.1296023,1.7263228 C18.8318022,3.51916675 20.6469976,6.54218399 20.7762171,9.99640332 L33.4176415,9.99639106 C33.8947416,9.99639106 34.2815076,10.3831571 34.2815076,10.8602571 C34.2815076,11.3373571 33.8947416,11.7241231 33.4176415,11.7241231 L20.6989389,11.7245109 C20.4359655,13.7786531 19.573258,15.64525 18.2919872,17.1431304 L33.4176654,17.1423418 C33.8947654,17.1423418 34.2815314,17.5291078 34.2815314,18.0062078 C34.2815314,18.4833079 33.8947654,18.8700739 33.4176654,18.8700739 L16.6931235,18.8700739 C16.6094475,18.8700739 16.5285501,18.858177 16.4520306,18.8359826 C14.965658,19.9033751 13.1852482,20.5894623 11.2553963,20.7482279 L11.2556664,36.7524185 C11.2556664,37.5908086 11.9353938,38.2705361 12.7737839,38.2705361 L30.171,38.27 L30.1717919,31.1944569 C30.1717919,30.7540568 30.501344,30.3906278 30.9272964,30.3373216 L31.035658,30.3305908 L38.11,30.33 L38.1117372,3.24584962 C38.1117372,2.45677659 37.5096257,1.80824903 36.7398178,1.73468202 L36.5936196,1.72773209 L16.1296023,1.7263228 Z M36.8891126,32.0576877 L31.8990159,32.0576877 L31.8990159,37.0488008 L36.8891126,32.0576877 Z M33.4176415,24.2882925 C33.8947416,24.2882925 34.2815076,24.6750585 34.2815076,25.1521585 C34.2815076,25.6292586 33.8947416,26.0160246 33.4176415,26.0160246 L15.949762,26.0160246 C15.472662,26.0160246 15.085896,25.6292586 15.085896,25.1521585 C15.085896,24.6750585 15.472662,24.2882925 15.949762,24.2882925 L33.4176415,24.2882925 Z M10.3918003,1.72773209 C5.60678107,1.72773209 1.72773209,5.60678107 1.72773209,10.3918003 C1.72773209,15.1768196 5.60678107,19.0558686 10.3918003,19.0558686 C15.1768196,19.0558686 19.0558686,15.1768196 19.0558686,10.3918003 C19.0558686,5.60678107 15.1768196,1.72773209 10.3918003,1.72773209 Z M8.72441183,6.11375784 L8.83471053,6.12078619 C9.01773302,6.14421401 9.19469042,6.2262114 9.33525737,6.36677834 L14.893219,11.92474 C15.2305797,12.2621007 15.2305797,12.8090704 14.893219,13.1464311 C14.5558584,13.4837918 14.0088886,13.4837918 13.671528,13.1464311 L8.724,8.199 L6.9532738,9.97045299 C6.61591312,10.3078137 6.0689434,10.3078137 5.73158272,9.97045299 C5.39422205,9.63309232 5.39422205,9.08612259 5.73158272,8.74876192 L8.1135663,6.36677834 C8.28224663,6.19809801 8.50332923,6.11375784 8.72441183,6.11375784 Z"></path></clipPath><linearGradient id="i2" x1="39.8412011px" y1="20px" x2="0px" y2="20px" gradientUnits="userSpaceOnUse"><stop stop-color="#CA459E" offset="0%"></stop><stop stop-color="#2E21AB" offset="100%"></stop></linearGradient></defs><g transform="translate(-76.0 -275.0)"><g clip-path="url(#i0)"><g transform="translate(75.99999999999966 315.0) scale(1.0 -1.0)"><g clip-path="url(#i1)"><polygon points="0,0 39.8412011,0 39.8412011,39.9999999 0,39.9999999 0,0" stroke="none" fill="url(#i2)"></polygon></g></g></g></g></svg>