<?xml version="1.0" encoding="UTF-8"?><svg version="1.1" width="41px" height="40px" viewBox="0 0 41.0 40.0" xmlns="http://www.w3.org/2000/svg" xmlns:xlink="http://www.w3.org/1999/xlink"><defs><clipPath id="i0"><path d="M1440,0 L1440,1776 L0,1776 L0,0 L1440,0 Z"></path></clipPath><clipPath id="i1"><path d="M30.745352,9.41151205 C33.9889082,9.41151205 36.6277535,12.0503574 36.6277535,15.2939136 C36.6277535,16.8905542 35.9874345,18.3397427 34.9512691,19.4006926 C37.9976472,20.6101143 40.1571944,23.5869233 40.1571944,27.0587166 L40.1571944,38.8235197 C40.1571944,39.4732506 39.630445,40 38.9807141,40 L1.17648031,40 C0.526749449,40 0,39.4732506 0,38.8235197 L0,27.0587166 C0,23.5869233 2.15954725,20.6101143 5.20592535,19.4006926 C4.16975993,18.3397427 3.52944092,16.8905542 3.52944092,15.2939136 C3.52944092,12.0503574 6.16828624,9.41151205 9.41184245,9.41151205 C12.6553987,9.41151205 15.294244,12.0503574 15.294244,15.2939136 C15.294244,16.8816914 14.660827,18.3235072 13.6348577,19.3828885 C14.7894555,19.8314413 15.837072,20.5360745 16.6892359,21.4461997 C18.5436042,19.5187328 21.6116295,19.5166151 23.4679586,21.4461997 C24.3201225,20.5359961 25.3677389,19.8313628 26.5223367,19.3828101 C25.496289,18.3234288 24.8629505,16.881613 24.8629505,15.2939136 C24.8629505,12.0503574 27.5017958,9.41151205 30.745352,9.41151205 Z M10.6667548,21.1763151 L8.23536214,21.1763151 C4.99180594,21.1763151 2.35296061,23.8151604 2.35296061,27.0587166 L2.35296061,37.6470394 L13.0197154,37.6470394 L13.0197154,32.9411182 C13.0197154,30.5957655 14.3998836,28.5672781 16.3903315,27.6232703 C15.5107164,26.5136925 15.1762038,25.0775238 15.4853828,23.685277 C14.3904718,22.1276171 12.5835549,21.1763151 10.6667548,21.1763151 Z M21.2550775,29.4116772 L18.9021169,29.4116772 C16.9559832,29.4116772 15.372676,30.9949844 15.372676,32.9411182 L15.372676,37.6470394 L24.7845184,37.6470394 L24.7845184,32.9411182 C24.7845184,30.9949844 23.2012112,29.4116772 21.2550775,29.4116772 Z M31.9218323,21.1763151 L29.4904397,21.1763151 C27.5734042,21.1763151 25.7667226,22.1275386 24.6718116,23.6853554 C24.981226,25.0788571 24.6456153,26.5147121 23.766863,27.6232703 C25.7573108,28.5672781 27.1374791,30.595687 27.1374791,32.9411182 L27.1374791,37.6470394 L37.8042338,37.6470394 L37.8042338,27.0587166 C37.8042338,23.8151604 35.1653885,21.1763151 31.9218323,21.1763151 Z M20.0785972,22.3527954 C18.7811747,22.3527954 17.7256366,23.4083335 17.7256366,24.705756 C17.7256366,26.0031785 18.7811747,27.0587166 20.0785972,27.0587166 C21.3760197,27.0587166 22.4315578,26.0031785 22.4315578,24.705756 C22.4315578,23.4083335 21.3760197,22.3527954 20.0785972,22.3527954 Z M30.745352,11.7644727 C28.7992183,11.7644727 27.2159111,13.3477799 27.2159111,15.2939136 C27.2159111,17.2400473 28.7992183,18.8233545 30.745352,18.8233545 C32.6914857,18.8233545 34.2747929,17.2400473 34.2747929,15.2939136 C34.2747929,13.3477799 32.6914857,11.7644727 30.745352,11.7644727 Z M9.41184245,11.7644727 C7.46570873,11.7644727 5.88240153,13.3477799 5.88240153,15.2939136 C5.88240153,17.2400473 7.46570873,18.8233545 9.41184245,18.8233545 C11.3579762,18.8233545 12.9412834,17.2400473 12.9412834,15.2939136 C12.9412834,13.3477799 11.3579762,11.7644727 9.41184245,11.7644727 Z M26.3531589,4.30292083 C26.3531589,5.94944423 25.3683664,7.69447825 23.4260759,9.48947347 C22.0828491,10.7308955 20.7513871,11.5553729 20.6953082,11.589883 C20.3170306,11.8226692 19.8400854,11.8226692 19.4618078,11.589883 C19.4058074,11.5553729 18.0742669,10.7308955 16.7310402,9.48947347 C14.788828,7.69447825 13.8040356,5.94944423 13.8040356,4.30292083 C13.8040356,0.573478259 17.5167721,-1.19626185 20.0785972,0.8856377 C22.6346968,-1.19163436 26.3531589,0.563595825 26.3531589,4.30292083 Z M16.1569962,4.30292083 C16.1569962,6.04803328 18.6356049,8.1575409 20.0813423,9.17762776 C21.8019056,7.97612764 24.0001982,5.90756153 24.0001982,4.30292083 C24.0001982,2.37796375 22.1466927,1.59380041 21.0688799,3.27444175 C20.6067584,3.99483985 19.5511419,3.9959379 19.0883145,3.27444175 C18.0072076,1.58901606 16.1569962,2.38345399 16.1569962,4.30292083 Z"></path></clipPath><linearGradient id="i2" x1="40.1571944px" y1="20px" x2="0px" y2="20px" gradientUnits="userSpaceOnUse"><stop stop-color="#CA459E" offset="0%"></stop><stop stop-color="#2E21AB" offset="100%"></stop></linearGradient></defs><g transform="translate(-1199.0 -275.0)"><g clip-path="url(#i0)"><g transform="translate(1179.0 249.0)"><g transform="translate(19.999999999999808 25.999999999999996)"><g clip-path="url(#i1)"><polygon points="0,-2.84217094e-14 40.1571944,-2.84217094e-14 40.1571944,40 0,40 0,-2.84217094e-14" stroke="none" fill="url(#i2)"></polygon></g></g></g></g></g></svg>