<?xml version="1.0" encoding="UTF-8"?>
<svg width="40px" height="40px" viewBox="0 0 40 40" version="1.1" xmlns="http://www.w3.org/2000/svg" xmlns:xlink="http://www.w3.org/1999/xlink">
    <title>36E386BE-9C13-4451-A5F8-CD0451ABCD54</title>
    <defs>
        <linearGradient x1="100%" y1="50%" x2="0%" y2="50%" id="linearGradient-1">
            <stop stop-color="#CA459E" offset="0%"></stop>
            <stop stop-color="#2E22AB" offset="100%"></stop>
        </linearGradient>
    </defs>
    <g id="Page-1" stroke="none" stroke-width="1" fill="none" fill-rule="evenodd">
        <g id="2_Prestation_administratives_grid" transform="translate(-527.000000, -275.000000)" fill="url(#linearGradient-1)">
            <g id="Group-23" transform="translate(506.000000, 249.000000)">
                <path d="M39.6666667,34.6333333 C39.4426667,34.712 39.2253333,34.812 39.016,34.932 C37.12,36.0146667 33.476,38.0973333 30.016,40.0746667 C24.5346667,43.2066667 21.672,49.4946667 22.9106667,55.6853333 L23.4373333,58.3173333 C22.976,58.5133333 22.552,58.796 22.1893333,59.1546667 L22.172,59.172 C21.4213333,59.9213333 21,60.9386667 21,62 C21,63.0613333 21.4213333,64.0786667 22.172,64.828 C22.9213333,65.5786667 23.9386667,66 25,66 L57,66 C58.0613333,66 59.0786667,65.5786667 59.828,64.828 C60.5786667,64.0786667 61,63.0613333 61,62 C61,60.9386667 60.5786667,59.9213333 59.828,59.172 C59.4613333,58.8053333 59.0306667,58.516 58.5626667,58.3173333 L59.0893333,55.6853333 C60.328,49.4946667 57.4653333,43.2066667 51.984,40.0746667 C48.524,38.0973333 44.88,36.0146667 42.984,34.932 C42.7746667,34.812 42.5573333,34.712 42.3333333,34.6333333 L42.3333333,33.772 C43.8866667,33.2226667 45,31.74 45,30 C45,29.264 44.4026667,28.6666667 43.6666667,28.6666667 C42.9333333,28.6666667 42.3386667,29.26 42.3333333,29.992 L42.3333333,30.008 C42.3293333,30.74 41.7333333,31.3333333 41,31.3333333 C40.264,31.3333333 39.6666667,30.736 39.6666667,30 C39.6666667,29.264 40.264,28.6666667 41,28.6666667 C41.736,28.6666667 42.3333333,28.0693333 42.3333333,27.3333333 C42.3333333,26.5973333 41.736,26 41,26 C38.792,26 37,27.792 37,30 C37,31.74 38.1133333,33.2226667 39.6666667,33.772 L39.6666667,34.6333333 Z M57,60.6666667 L25,60.6666667 C24.6493333,60.6666667 24.312,60.8053333 24.0626667,61.052 L24.0573333,61.0573333 C23.8066667,61.3066667 23.6666667,61.6466667 23.6666667,62 C23.6666667,62.3506667 23.8053333,62.688 24.052,62.9373333 L24.0573333,62.9426667 C24.3066667,63.1933333 24.6466667,63.3333333 25,63.3333333 L57,63.3333333 C57.3533333,63.3333333 57.6933333,63.1933333 57.9426667,62.9426667 C58.1933333,62.6933333 58.3333333,62.3533333 58.3333333,62 C58.3333333,61.6466667 58.1933333,61.3066667 57.9426667,61.0573333 C57.6933333,60.8066667 57.3533333,60.6666667 57,60.6666667 L57,60.6666667 Z M55.9066667,58 L56.4746667,55.1626667 C57.488,50.0973333 55.1453333,44.952 50.6613333,42.3893333 L41.6613333,37.2466667 C41.252,37.0133333 40.748,37.0133333 40.3386667,37.2466667 L31.3386667,42.3893333 C26.8546667,44.952 24.512,50.0973333 25.5253333,55.1626667 L26.0933333,58 L55.9066667,58 Z" id="Shape"></path>
            </g>
        </g>
    </g>
</svg>