<?xml version="1.0" encoding="UTF-8"?><svg version="1.1" width="38px" height="40px" viewBox="0 0 38.0 40.0" xmlns="http://www.w3.org/2000/svg" xmlns:xlink="http://www.w3.org/1999/xlink"><defs><clipPath id="i0"><path d="M1440,0 L1440,1776 L0,1776 L0,0 L1440,0 Z"></path></clipPath><clipPath id="i1"><path d="M30.7172971,31.2401805 C34.0688744,31.2540023 36.8556247,33.8238849 37.1402888,37.1633798 L37.2777458,38.9253289 C37.284447,39.2025551 37.1798534,39.4709198 36.9873212,39.6704958 C36.794789,39.8700719 36.5303541,39.9842367 36.2530662,39.9874968 C35.7220702,39.9889554 35.2802138,39.5798292 35.2408827,39.0502899 L35.1034256,37.2883408 C34.9094263,35.0070608 33.0067837,33.2507754 30.7172971,33.2396067 L26.7310435,33.2396067 C24.4539136,33.2763923 22.5745647,35.0315313 22.3824032,37.3008369 L22.3824032,37.9631298 L30.9297307,37.9631298 C31.4921949,37.9631298 31.9481622,38.4190971 31.9481622,38.9815613 C31.9481622,39.5440256 31.4921949,40 30.9297307,40 L21.1327939,40 C20.8484799,40.0010568 20.5768275,39.8824948 20.384278,39.6733052 C20.1917285,39.4641157 20.0960379,39.1835889 20.1206104,38.9003367 L20.2580674,37.1383877 C20.5565968,33.7896728 23.3690747,31.2269517 26.7310435,31.2401805 L30.7172971,31.2401805 Z M10.5486034,31.2402319 C13.9001807,31.2540023 16.686931,33.8238849 16.9715951,37.1633798 L17.1090521,38.9253289 C17.1226058,39.1959376 17.0270992,39.4606833 16.8439067,39.6603161 C16.6607142,39.859949 16.4051312,39.9778009 16.1343568,39.9874968 L6.43738886,39.9874968 C5.87492464,39.9874968 5.4189573,39.5315295 5.4189573,38.9690652 C5.4189573,38.406601 5.87492464,37.9506337 6.43738886,37.9506337 L14.9847163,37.9506337 L14.9847163,37.2883408 C14.7850495,35.0098388 12.885758,33.2566466 10.5985877,33.2396067 L6.56234979,33.2396067 C4.27286313,33.2507754 2.37022059,35.0070608 2.17622123,37.2883408 L2.03876421,39.0502899 C1.99913228,39.5846764 1.54987778,39.9955799 1.0140846,39.9874968 C0.732196633,39.9812189 0.465013167,39.8604472 0.274060685,39.6529927 C0.0831082032,39.4455381 -0.0151542198,39.1692822 0.00190109179,38.8878406 L0.139358112,37.1258916 C0.442245109,33.8012205 3.22393189,31.2522429 6.56234979,31.2402319 L10.5486034,31.2402319 Z M8.54922853,18.9815649 C11.5237326,18.9815649 13.9350445,21.3928768 13.9350445,24.3673809 C13.9281736,27.3390342 11.5208819,29.7463259 8.54922853,29.7531968 C5.57472451,29.7531968 3.16341256,27.3418849 3.16341256,24.3673809 C3.16341256,21.3928768 5.57472451,18.9815649 8.54922853,18.9815649 Z M28.7179222,18.9815649 C31.6924263,18.9815649 34.1037382,21.3928768 34.1037382,24.3673809 C34.0968673,27.3390342 31.6895756,29.7463259 28.7179222,29.7531968 C25.7434182,29.7531968 23.3321063,27.3418849 23.3321063,24.3673809 C23.3321063,21.3928768 25.7434182,18.9815649 28.7179222,18.9815649 Z M8.54922853,21.0059319 C6.69965294,21.0059319 5.20027568,22.5053092 5.20027568,24.3548848 C5.20027568,26.2044604 6.69965294,27.7038376 8.54922853,27.7038376 C10.3988041,27.7038376 11.8981814,26.2044604 11.8981814,24.3548848 C11.8913289,22.508155 10.3959583,21.0127844 8.54922853,21.0059319 Z M28.7179222,21.0059319 C26.8683466,21.0059319 25.3689694,22.5053092 25.3689694,24.3548848 C25.3689694,26.2044604 26.8683466,27.7038376 28.7179222,27.7038376 C30.5674978,27.7038376 32.0668751,26.2044604 32.0668751,24.3548848 C32.0600226,22.508155 30.564652,21.0127844 28.7179222,21.0059319 Z M26.7435396,0 C28.81396,0 30.4923674,1.67840739 30.4923674,3.74882783 L30.4923674,11.8837842 C30.4915093,12.8715824 30.1008171,13.8191232 29.4052073,14.5204598 C28.7038707,15.2160696 27.75633,15.6067617 26.7685318,15.6076198 L23.2571297,15.6076198 C23.1678805,15.6082279 23.0825083,15.6441741 23.0197039,15.7075886 L20.3080518,18.4192407 C19.8612769,18.8570407 19.2590706,19.0997209 18.6335754,19.0941276 C18.006293,19.096397 17.4038376,18.8491205 16.959099,18.4067446 L14.2474468,15.6950925 C14.1846425,15.631678 14.0992702,15.5957318 14.0100211,15.5951238 L10.498619,15.5951238 C8.42819857,15.5951238 6.74979118,13.9167164 6.74979118,11.8462959 L6.74979118,3.74882783 C6.7506493,2.76102964 7.14134147,1.81348886 7.83695125,1.11215225 C8.54031866,0.401256875 9.4985704,0.000860607301 10.498619,0 L26.7435396,0 Z M10.498619,2.03686312 C10.0478881,2.04016513 9.61693103,2.22239034 9.30055969,2.54344867 C8.98418835,2.86450699 8.8083201,3.29809708 8.81160014,3.74882783 L8.81160014,11.8837842 C8.81160014,12.8223748 9.5725245,13.5832528 10.5111151,13.5832528 L14.0100211,13.5832528 C14.6391019,13.5841964 15.2418112,13.8360749 15.6844975,14.283034 L18.3961496,16.9946861 C18.5276434,17.1249233 18.7395073,17.1249233 18.8710011,16.9946861 L21.5826533,14.283034 C22.0253396,13.8360749 22.6280489,13.5841964 23.2571297,13.5832528 L26.7685318,13.5832528 C27.7071224,13.5832528 28.4680004,12.8223748 28.4680004,11.8837842 L28.4680004,3.74882783 C28.4680004,3.29810073 28.2889497,2.86583423 27.9702375,2.54712204 C27.6515254,2.22840985 27.2192589,2.04935921 26.7685318,2.04935921 L10.498619,2.03686312 Z M18.6335754,6.77288227 C19.1925889,6.77288227 19.6457589,7.22605227 19.6457589,7.78506578 C19.6457589,8.3440793 19.1925889,8.7972493 18.6335754,8.7972493 C18.0745619,8.7972493 17.6213919,8.3440793 17.6213919,7.78506578 C17.6213919,7.22605227 18.0745619,6.77288227 18.6335754,6.77288227 Z M14.5723452,6.77288227 C15.1313588,6.77288227 15.5845288,7.22605227 15.5845288,7.78506578 C15.5845288,8.3440793 15.1313588,8.7972493 14.5723452,8.7972493 C14.0133317,8.7972493 13.5601617,8.3440793 13.5601617,7.78506578 C13.5601617,7.22605227 14.0133317,6.77288227 14.5723452,6.77288227 Z M22.6948055,6.77288227 C23.1041955,6.77288227 23.4732744,7.01949287 23.6299412,7.39771992 C23.7866079,7.77594698 23.7000098,8.21130515 23.4105274,8.50078761 C23.1210449,8.79027007 22.6856867,8.87686819 22.3074597,8.72020142 C21.9292326,8.56353464 21.682622,8.1944558 21.682622,7.78506578 C21.682622,7.22605227 22.135792,6.77288227 22.6948055,6.77288227 Z"></path></clipPath><linearGradient id="i2" x1="37.278049px" y1="20.0000035px" x2="0px" y2="20.0000035px" gradientUnits="userSpaceOnUse"><stop stop-color="#CA459E" offset="0%"></stop><stop stop-color="#2E21AB" offset="100%"></stop></linearGradient></defs><g transform="translate(-979.0 -275.0)"><g clip-path="url(#i0)"><g transform="translate(959.0 249.0)"><g transform="translate(19.99999999999985 25.99999999999931)"><g clip-path="url(#i1)"><polygon points="5.55111512e-17,0 37.278049,0 37.278049,40.000007 5.55111512e-17,40.000007 5.55111512e-17,0" stroke="none" fill="url(#i2)"></polygon></g></g></g></g></g></svg>